<?xml version="1.0" standalone="no"?>
<!DOCTYPE svg PUBLIC "-//W3C//DTD SVG 20010904//EN"
 "http://www.w3.org/TR/2001/REC-SVG-20010904/DTD/svg10.dtd">
<svg version="1.0" xmlns="http://www.w3.org/2000/svg"
 width="261.000000pt" height="261.000000pt" viewBox="0 0 261.000000 261.000000"
 preserveAspectRatio="xMidYMid meet">
<metadata>
Created by potrace 1.11, written by Peter Selinger 2001-2013
</metadata>
<g transform="translate(0.000000,261.000000) scale(0.100000,-0.100000)"
fill="#000000" stroke="none">
<path d="M1227 2604 c-1 -1 -32 -4 -69 -8 -187 -17 -413 -99 -578 -209 -107
-71 -227 -184 -309 -291 -52 -69 -121 -178 -121 -193 0 -5 28 -34 62 -64 34
-30 87 -77 118 -105 30 -28 102 -93 160 -144 58 -51 125 -112 150 -135 25 -24
95 -87 156 -141 100 -90 261 -234 288 -259 6 -5 79 -70 161 -144 83 -74 158
-143 167 -152 15 -15 17 -44 17 -244 l0 -227 -22 18 c-19 16 -93 83 -282 253
-22 20 -128 115 -235 211 -107 96 -197 177 -200 180 -3 3 -45 41 -94 85 -50
44 -97 87 -106 95 -25 23 -89 80 -155 140 -33 29 -96 85 -140 125 -44 39 -99
89 -123 110 -23 21 -45 36 -47 33 -18 -18 -29 -387 -12 -414 3 -5 8 -34 12
-64 4 -30 11 -63 16 -72 5 -10 7 -18 5 -18 -11 0 58 -179 102 -264 87 -170
244 -352 394 -459 144 -102 350 -191 513 -222 109 -20 322 -26 430 -11 202 27
431 123 600 250 243 182 428 472 489 762 8 38 13 70 11 72 -2 2 -262 4 -579 4
l-576 -1 0 155 c0 153 0 154 23 155 12 0 275 1 585 1 l563 1 -6 41 c-4 23 -9
57 -11 76 -7 48 -21 103 -46 183 l-22 67 -70 1 c-39 0 -284 0 -543 0 l-473 -1
0 155 0 155 456 2 456 3 -82 87 c-222 237 -490 375 -805 414 -47 6 -223 12
-228 8z"/>
</g>
</svg>
